<mxfile host="app.diagrams.net" modified="2022-06-15T17:48:39.449Z" agent="5.0 (Windows NT 6.1; Win64; x64) AppleWebKit/537.36 (KHTML, like Gecko) Chrome/101.0.4951.67 Safari/537.36" etag="lRpDMAme99TARSRt705A" version="20.0.1" type="github">
  <diagram id="OQ6lYV3G7z6NHDtOXstS" name="Page-1">
    <mxGraphModel dx="2249" dy="794" grid="1" gridSize="10" guides="1" tooltips="1" connect="1" arrows="1" fold="1" page="1" pageScale="1" pageWidth="827" pageHeight="1169" math="0" shadow="0">
      <root>
        <mxCell id="0" />
        <mxCell id="1" parent="0" />
        <mxCell id="DQStLXznFZ1ZlbNjAvRb-19" value="" style="rounded=0;whiteSpace=wrap;html=1;" vertex="1" parent="1">
          <mxGeometry x="-60" y="110" width="1160" height="520" as="geometry" />
        </mxCell>
        <mxCell id="DQStLXznFZ1ZlbNjAvRb-5" style="edgeStyle=orthogonalEdgeStyle;rounded=0;orthogonalLoop=1;jettySize=auto;html=1;curved=1;" edge="1" parent="1" source="DQStLXznFZ1ZlbNjAvRb-2" target="DQStLXznFZ1ZlbNjAvRb-4">
          <mxGeometry relative="1" as="geometry" />
        </mxCell>
        <mxCell id="DQStLXznFZ1ZlbNjAvRb-7" value="抽取调用链数据" style="edgeLabel;html=1;align=center;verticalAlign=middle;resizable=0;points=[];" vertex="1" connectable="0" parent="DQStLXznFZ1ZlbNjAvRb-5">
          <mxGeometry x="-0.6903" y="1" relative="1" as="geometry">
            <mxPoint as="offset" />
          </mxGeometry>
        </mxCell>
        <mxCell id="DQStLXznFZ1ZlbNjAvRb-2" value="SKYWALKING OAP服务" style="rounded=0;whiteSpace=wrap;html=1;" vertex="1" parent="1">
          <mxGeometry x="110" y="230" width="170" height="60" as="geometry" />
        </mxCell>
        <mxCell id="DQStLXznFZ1ZlbNjAvRb-6" style="edgeStyle=orthogonalEdgeStyle;rounded=0;orthogonalLoop=1;jettySize=auto;html=1;entryX=0;entryY=0.5;entryDx=0;entryDy=0;curved=1;" edge="1" parent="1" source="DQStLXznFZ1ZlbNjAvRb-3" target="DQStLXznFZ1ZlbNjAvRb-4">
          <mxGeometry relative="1" as="geometry" />
        </mxCell>
        <mxCell id="DQStLXznFZ1ZlbNjAvRb-8" value="抽取接口描述数据" style="edgeLabel;html=1;align=center;verticalAlign=middle;resizable=0;points=[];" vertex="1" connectable="0" parent="DQStLXznFZ1ZlbNjAvRb-6">
          <mxGeometry x="-0.4914" y="2" relative="1" as="geometry">
            <mxPoint as="offset" />
          </mxGeometry>
        </mxCell>
        <mxCell id="DQStLXznFZ1ZlbNjAvRb-3" value="YApi&amp;nbsp;" style="rounded=0;whiteSpace=wrap;html=1;" vertex="1" parent="1">
          <mxGeometry x="110" y="340" width="160" height="60" as="geometry" />
        </mxCell>
        <mxCell id="DQStLXznFZ1ZlbNjAvRb-11" style="edgeStyle=orthogonalEdgeStyle;curved=1;rounded=0;orthogonalLoop=1;jettySize=auto;html=1;" edge="1" parent="1" source="DQStLXznFZ1ZlbNjAvRb-4" target="DQStLXznFZ1ZlbNjAvRb-10">
          <mxGeometry relative="1" as="geometry" />
        </mxCell>
        <mxCell id="DQStLXznFZ1ZlbNjAvRb-14" value="基础资源数据" style="edgeLabel;html=1;align=center;verticalAlign=middle;resizable=0;points=[];" vertex="1" connectable="0" parent="DQStLXznFZ1ZlbNjAvRb-11">
          <mxGeometry x="0.0977" relative="1" as="geometry">
            <mxPoint as="offset" />
          </mxGeometry>
        </mxCell>
        <mxCell id="DQStLXznFZ1ZlbNjAvRb-12" style="edgeStyle=orthogonalEdgeStyle;curved=1;rounded=0;orthogonalLoop=1;jettySize=auto;html=1;" edge="1" parent="1" source="DQStLXznFZ1ZlbNjAvRb-4" target="DQStLXznFZ1ZlbNjAvRb-9">
          <mxGeometry relative="1" as="geometry" />
        </mxCell>
        <mxCell id="DQStLXznFZ1ZlbNjAvRb-13" value="定时更新关系型数据" style="edgeLabel;html=1;align=center;verticalAlign=middle;resizable=0;points=[];" vertex="1" connectable="0" parent="DQStLXznFZ1ZlbNjAvRb-12">
          <mxGeometry x="0.2364" y="3" relative="1" as="geometry">
            <mxPoint as="offset" />
          </mxGeometry>
        </mxCell>
        <mxCell id="DQStLXznFZ1ZlbNjAvRb-18" style="edgeStyle=orthogonalEdgeStyle;curved=1;rounded=0;orthogonalLoop=1;jettySize=auto;html=1;" edge="1" parent="1" source="DQStLXznFZ1ZlbNjAvRb-4" target="DQStLXznFZ1ZlbNjAvRb-17">
          <mxGeometry relative="1" as="geometry">
            <Array as="points">
              <mxPoint x="625" y="340" />
              <mxPoint x="720" y="340" />
              <mxPoint x="720" y="490" />
            </Array>
          </mxGeometry>
        </mxCell>
        <mxCell id="DQStLXznFZ1ZlbNjAvRb-4" value="AIOS 后端" style="rounded=0;whiteSpace=wrap;html=1;" vertex="1" parent="1">
          <mxGeometry x="540" y="270" width="170" height="60" as="geometry" />
        </mxCell>
        <mxCell id="DQStLXznFZ1ZlbNjAvRb-9" value="neo4j" style="rounded=0;whiteSpace=wrap;html=1;" vertex="1" parent="1">
          <mxGeometry x="410" y="460" width="160" height="60" as="geometry" />
        </mxCell>
        <mxCell id="DQStLXznFZ1ZlbNjAvRb-10" value="MYSQL" style="rounded=0;whiteSpace=wrap;html=1;" vertex="1" parent="1">
          <mxGeometry x="640" y="460" width="160" height="60" as="geometry" />
        </mxCell>
        <mxCell id="DQStLXznFZ1ZlbNjAvRb-16" style="edgeStyle=orthogonalEdgeStyle;curved=1;rounded=0;orthogonalLoop=1;jettySize=auto;html=1;" edge="1" parent="1" source="DQStLXznFZ1ZlbNjAvRb-15" target="DQStLXznFZ1ZlbNjAvRb-4">
          <mxGeometry relative="1" as="geometry" />
        </mxCell>
        <mxCell id="DQStLXznFZ1ZlbNjAvRb-15" value="AIOS 前端" style="rounded=0;whiteSpace=wrap;html=1;" vertex="1" parent="1">
          <mxGeometry x="827" y="270" width="170" height="60" as="geometry" />
        </mxCell>
        <mxCell id="DQStLXznFZ1ZlbNjAvRb-17" value="Redis" style="rounded=0;whiteSpace=wrap;html=1;" vertex="1" parent="1">
          <mxGeometry x="832" y="460" width="160" height="60" as="geometry" />
        </mxCell>
        <mxCell id="DQStLXznFZ1ZlbNjAvRb-20" value="&lt;h1&gt;全链路架构图&lt;/h1&gt;" style="text;html=1;strokeColor=none;fillColor=none;spacing=5;spacingTop=-20;whiteSpace=wrap;overflow=hidden;rounded=0;" vertex="1" parent="1">
          <mxGeometry x="95" y="120" width="190" height="80" as="geometry" />
        </mxCell>
      </root>
    </mxGraphModel>
  </diagram>
</mxfile>
